<svg xmlns="http://www.w3.org/2000/svg" viewBox="0 0 680 420" role="img" aria-labelledby="bookTitle bookDesc">
<title id="bookTitle">Open book</title><desc id="bookDesc">A blue and gold line illustration of an open book with rays rising from its pages.</desc>
<g fill="none" stroke-linecap="round" stroke-linejoin="round">
  <g stroke="#e7a614" stroke-width="4">
    <path d="M340 75V18"/><path d="M302 82l-18-55"/><path d="M265 96l-34-48"/><path d="M233 119l-48-35"/><path d="M211 151l-55-18"/>
    <path d="M378 82l18-55"/><path d="M415 96l34-48"/><path d="M447 119l48-35"/><path d="M469 151l55-18"/>
  </g>
  <path d="M340 166c-56-54-132-64-225-30v194c91-25 165-15 225 38z" fill="#fff" stroke="#00467f" stroke-width="9"/>
  <path d="M340 166c56-54 132-64 225-30v194c-91-25-165-15-225 38z" fill="#fff" stroke="#00467f" stroke-width="9"/>
  <path d="M340 166v202" stroke="#00467f" stroke-width="9"/>
  <path d="M115 330l-42 28c104-19 190-8 267 34" stroke="#00467f" stroke-width="12"/>
  <path d="M565 330l42 28c-104-19-190-8-267 34" stroke="#00467f" stroke-width="12"/>
  <g stroke="#e7a614" stroke-width="4">
    <path d="M160 189c54-17 101-10 142 18"/><path d="M160 224c54-17 101-10 142 18"/><path d="M160 259c54-17 101-10 142 18"/>
    <path d="M520 189c-54-17-101-10-142 18"/><path d="M520 224c-54-17-101-10-142 18"/><path d="M520 259c-54-17-101-10-142 18"/>
  </g>
  <path d="M390 345v67l-25-18-25 18v-51" fill="#e7a614" stroke="#e7a614" stroke-width="2"/>
</g></svg>